<?xml version="1.0" encoding="utf-8"?>
<!DOCTYPE svg PUBLIC "-//W3C//DTD SVG 1.0//EN" "http://www.w3.org/TR/2001/REC-SVG-20010904/DTD/svg10.dtd">
<svg version="1.0" xmlns="http://www.w3.org/2000/svg" width="934px" height="230px" viewBox="0 0 934 230" preserveAspectRatio="xMidYMid meet">
 <g fill="#ffffff">
  <path d="M660.2 215.5 c-18 -3.9 -39 -16.1 -52.9 -30.7 -13.1 -13.9 -24.7 -34.5 -30.2 -53.8 -2.3 -8.3 -5.1 -22 -5.1 -25.4 0 -1.1 -3.6 -0.6 -4.8 0.6 -1.6 1.6 -1.5 10.3 0.3 32.3 2.1 25.4 2 28.8 -0.8 32 -4.4 5.2 -12.3 2.9 -16.3 -4.6 -1.8 -3.6 -3.1 -19.1 -4.4 -52.9 -0.6 -15.7 -1.8 -35.7 -2.6 -44.5 -1.7 -18.9 -1.8 -39.9 -0.3 -45.9 2.4 -9.8 14.3 -10.3 16.9 -0.6 1.2 4.4 2.9 29.2 3 42.5 0 11.4 0.9 16.5 2.6 16.5 1.3 0 22.5 -17.5 25 -20.6 0.6 -0.8 1.5 -1.4 1.9 -1.4 0.4 0 2.3 -1.4 4.3 -3.1 2 -1.8 6.5 -4.5 10 -6.2 7.1 -3.3 9.7 -3 12.8 1.9 1.7 2.5 1.7 2.8 -0.4 6.8 -2.5 4.6 -6.8 9.4 -13.2 14.6 -10.4 8.5 -17.6 14.5 -18.3 15.5 -1.7 2.2 1.9 21.2 7 36.5 6.4 19.5 16.9 36.8 30.8 50.5 14.3 14.3 29.6 21.4 48.2 22.3 9 0.4 11.2 0.2 18.5 -2.1 8.2 -2.6 14.3 -6 20.3 -11.3 1.7 -1.5 4.9 -3.5 7.3 -4.6 5.5 -2.5 10.2 -1.2 13.2 3.6 4.7 7.7 2 12.1 -12.8 21 -18.5 11.1 -40.9 15.2 -60 11.1z"/>
  <path d="M51.8 188 c-1.1 -0.7 -1.8 -2.3 -1.8 -4 0 -2.2 1.3 -4 6 -8.3 7.7 -7 14.3 -10.4 32.7 -17.3 8.1 -3 15.7 -5.9 16.8 -6.4 3.4 -1.6 10.7 -4 12.3 -4 1.2 0 1 0.6 -0.8 2.5 -1.3 1.4 -2.9 2.5 -3.7 2.5 -0.7 0 -1.3 0.5 -1.3 1 0 0.6 -0.6 1 -1.3 1 -0.7 0 -8 4.6 -16.2 10.3 -33.4 22.7 -38.3 25.3 -42.7 22.7z"/>
  <path d="M868 183.4 c-3 -1.4 -13.1 -6.7 -22.5 -11.9 -9.3 -5.1 -19.4 -10.6 -22.4 -12.2 -5.8 -3 -8.3 -6.1 -4 -4.8 13.2 3.9 51.7 16.8 55 18.5 8.7 4.4 11 8.4 6.7 11.4 -3.2 2.2 -6.5 2 -12.8 -1z"/>
  <path d="M495.5 173.3 c-9.4 -1.1 -20.9 -5.6 -25.7 -10.1 -3.7 -3.4 -3.8 -8.8 -0.3 -12.6 4.1 -4.4 8.9 -3.4 24 4.8 1.7 0.9 4.9 1.6 7.3 1.6 5.4 0 9.2 -3.3 9.2 -8 0 -6.5 -2.4 -8.2 -16 -11.5 -14.8 -3.5 -24.3 -10.4 -29.7 -21.3 -2.4 -4.9 -2.8 -6.9 -2.8 -14.2 0 -7.1 0.4 -9.4 2.7 -14.2 5.3 -11.4 16.1 -20.2 28.3 -23.3 12.5 -3.1 23.4 0.2 31.9 9.6 7.2 8 10 14.8 10.4 24.9 0.3 8 0.2 8.8 -2.7 13.2 -3.6 5.7 -6.5 6.7 -12.5 4.4 -7.8 -3 -8.7 -4.8 -8.9 -17.4 -0.2 -13.9 -1.1 -15.2 -9.9 -15.2 -12.1 0 -18.2 6.1 -18.1 18.2 0 8.7 2.6 12.5 10.4 15.2 10.7 3.7 26.5 11 29.9 13.9 5.4 4.6 8 9.4 8 15.1 0 15.1 -18.2 28.9 -35.5 26.9z"/>
  <path d="M177.4 170 c-9.6 -1.9 -22 -9.2 -29.7 -17.5 -4.9 -5.3 -10.6 -18.4 -12.7 -29.4 -2.4 -12.3 -2.5 -17.8 -0.5 -25.6 2.4 -9.1 8.4 -15.5 14.5 -15.5 3.4 0 7.6 2.7 8.8 5.7 0.6 1.6 1.3 11.4 1.5 22.3 0.2 16.2 0.6 20.3 2.1 24 4.6 11.2 9.8 14.5 21.1 13.8 13.7 -0.9 24.9 -10.1 29.1 -23.6 2.1 -7.2 1.8 -10.6 -1.3 -13.3 -11.5 -10.1 -13.8 -14.4 -10.5 -18.8 2.8 -3.8 7.1 -6 14.8 -7.6 14.5 -3.1 28.6 -1.5 32.9 3.7 4.3 5.1 3.5 8.1 -5.2 18.7 -11.2 13.7 -6.2 30.9 10.4 35.7 8.5 2.5 20.6 1.6 26.6 -1.9 6 -3.5 11.2 -9.8 13.7 -16.3 2.1 -5.8 4 -18.6 4 -27.7 0 -10 3.9 -15.7 10.9 -15.9 3.7 -0.1 7.4 2.9 10.4 8.7 1.7 3.2 2.1 5.8 2.1 12.5 0 24.1 -13.6 49.4 -31.4 58.5 -15.4 7.9 -34.3 7.9 -48.1 0.1 -5.8 -3.4 -13.4 -9.8 -15.2 -12.8 -0.9 -1.6 -2.2 -2.8 -3 -2.8 -0.8 0 -3.2 2.3 -5.3 5.2 -4.8 6.5 -14.3 14.3 -20.9 17.3 -5.8 2.7 -13.3 3.6 -19.1 2.5z"/>
  <path d="M655 170.1 c-20.4 -2.8 -33.7 -15.4 -37.5 -35.7 -2.9 -14.7 -1 -26.8 6.1 -41.3 12.3 -25 36.1 -36.5 56.4 -27.4 10.1 4.5 20.6 17.1 24.9 29.6 3 8.6 3.7 18.4 1.7 23.2 -4.8 11.5 -18.3 17.5 -39.1 17.5 -9.8 0 -13.5 -0.4 -26.4 -2.7 -3.3 -0.6 -3.4 -0.5 -2.7 2.1 2.2 8.8 9.6 14 21.5 15.2 8.2 0.9 14.2 -0.8 23.2 -6.7 8 -5.2 11 -5.9 14.7 -3.3 7.1 5 3.7 15.7 -7.1 22.2 -10.3 6.1 -23.7 8.9 -35.7 7.3z m13.9 -53.1 c10.2 -1.1 17.3 -3.7 19.1 -6.9 1.4 -2.8 -1.1 -12.1 -4.8 -17.5 -6.1 -8.8 -20.2 -11.6 -29.3 -5.7 -5.5 3.5 -8.1 6.3 -11 12 -2.4 4.7 -3.5 12.8 -2.1 14.9 0.5 0.7 4.5 1.9 8.8 2.7 10.1 1.7 8.4 1.6 19.3 0.5z"/>
  <path d="M340.3 166.8 c-2.1 -1.6 -3.5 -3.6 -4.2 -6.3 -1.8 -7.1 -4.3 -62 -4.5 -95.9 l-0.1 -32.8 3.5 -2.9 c6.2 -5.2 12.7 -3 15 5.2 0.6 1.9 1.3 12.5 1.7 23.6 0.4 13.6 1 20.3 1.7 20.3 0.6 0 2.5 -0.9 4.3 -2 11.3 -6.8 28.3 -5.9 38.3 2 9.3 7.4 12.1 16.6 14.1 46.9 1.9 28.5 -0.1 39.3 -7.8 40.7 -2.7 0.5 -3.9 0.2 -5.8 -1.6 -4.5 -4.2 -5.6 -9.9 -6.5 -32.5 -0.9 -21.8 -1.8 -27.8 -5 -33 -5.3 -8.5 -19.7 -8.1 -26.4 0.8 -3.6 4.7 -4.5 11.6 -3.5 27.6 1.3 19.7 1.1 31.7 -0.5 35.5 -2.7 6.6 -8.6 8.4 -14.3 4.4z"/>
  <path d="M436.5 167.5 c-8.3 -4.5 -9.8 -9 -12.5 -38.1 -2.7 -27.3 -2.5 -51.5 0.4 -55.9 3.6 -5.5 11.4 -5.6 14.6 -0.2 2.5 4.1 2.9 8.3 3.9 41.9 0.5 19.9 1.1 29.1 2 30.1 0.6 0.8 2.7 1.8 4.5 2.1 3.4 0.7 5.5 2.4 7.5 6.3 0.9 1.8 0.8 3 -0.3 5.6 -3.1 7.5 -13.5 11.7 -20.1 8.2z"/>
  <path d="M729.8 164.4 c-1.5 -0.8 -3.8 -3.8 -5.4 -7 -2.6 -5.4 -2.8 -6.9 -4.6 -34.3 -2.6 -41.5 -2.7 -55.8 -0.5 -59.8 1.9 -3.6 6.3 -6.3 10.2 -6.3 3.1 0 7.2 3.8 8 7.4 0.3 1.4 0.7 3.7 1 5.1 0.8 3.7 2.5 3 7 -2.8 7.8 -9.9 21.1 -15.3 32.1 -12.9 12.1 2.5 19.6 8.3 24.8 19.2 2.8 5.8 3.1 7.5 3.1 15.5 0 10.5 -2.1 17.1 -6.6 20.9 -6.4 5.4 -15 4.1 -18.3 -2.8 -1.3 -2.7 -1.6 -5.8 -1.4 -14.1 0.3 -10.2 0.2 -10.8 -2.1 -12.6 -2.8 -2.3 -5.1 -2.4 -12.1 -0.3 -9.7 2.9 -18 13.7 -20.1 26.1 -0.5 3.2 -1 15.8 -1.1 28.1 -0.1 25.6 -0.6 27.4 -7.4 30.3 -3.5 1.4 -4.4 1.5 -6.6 0.3z"/>
  <path d="M871.8 137.9 c-12.6 -0.8 -44.2 -5.3 -49.6 -7.1 -6.3 -1.9 -1.7 -3.1 15 -3.9 9 -0.4 23.7 -1.2 32.8 -1.8 20.1 -1.2 32.3 -0.3 37.3 2.8 4.6 2.8 5.1 4.4 2.2 7.1 -3.8 3.6 -15.3 4.4 -37.7 2.9z"/>
  <path d="M39.6 130 c-10.1 -1.8 -13.3 -4.9 -10.8 -10.5 2.1 -4.5 7.2 -5.1 25.4 -2.7 9 1.2 23.7 2.6 32.8 3.2 20.5 1.4 24.5 2.1 24.5 4 0 1 -1.2 1.6 -3.5 1.8 -1.9 0.1 -13.4 1.1 -25.5 2.2 -31.2 2.7 -37.4 3 -42.9 2z"/>
  <path d="M821.2 100.8 c0.3 -0.7 2.4 -2.3 4.9 -3.6 2.4 -1.3 7.8 -4.2 11.9 -6.4 27.1 -14.8 46 -24 50 -24.5 2.9 -0.4 4.2 0 6.4 1.9 6.7 5.7 1.1 9.2 -32.2 20.3 -13.7 4.5 -27.8 9.4 -31.4 10.9 -7.3 2.8 -10.2 3.3 -9.6 1.4z"/>
  <path d="M80.5 87.7 c-17.1 -6.2 -32.8 -12.2 -34.8 -13.4 -2 -1.2 -4.3 -3.4 -4.9 -4.9 -1.1 -2.4 -1 -2.9 1.7 -5.1 2.3 -2.1 3.5 -2.4 6.6 -1.9 8.1 1.3 39.5 16.9 58.2 28.9 7.3 4.6 9 6.9 5.6 7.4 -0.8 0.1 -15.4 -4.9 -32.4 -11z"/>
  <path d="M423.3 56.3 c-1.8 -1.7 -3.6 -4.8 -4.3 -7.2 -1 -3.7 -0.9 -4.8 0.8 -7.9 2.2 -4.4 7.4 -8.2 11.2 -8.2 7.2 0 13.3 8.7 11.2 15.8 -1.9 6.2 -5.5 9.4 -11 10 -4.2 0.4 -5.1 0.1 -7.9 -2.5z"/>
 </g>
</svg>